<?xml version="1.0" encoding="UTF-8"?>
<!DOCTYPE svg PUBLIC "-//W3C//DTD SVG 1.1//EN" "http://www.w3.org/Graphics/SVG/1.1/DTD/svg11.dtd">
<!-- Creator: CorelDRAW 2017 -->
<svg xmlns="http://www.w3.org/2000/svg" xml:space="preserve" width="146.69mm" height="146.69mm" version="1.1" style="shape-rendering:geometricPrecision; text-rendering:geometricPrecision; image-rendering:optimizeQuality; fill-rule:evenodd; clip-rule:evenodd"
viewBox="0 0 13892 13892"
 xmlns:xlink="http://www.w3.org/1999/xlink">
 <defs>
  <style type="text/css">
   <![CDATA[
    .fil2 {fill:#185ABC}
    .fil1 {fill:white}
    .fil0 {fill:#F15200}
   ]]>
  </style>
 </defs>
 <g id="Layer_x0020_1">
  <metadata id="CorelCorpID_0Corel-Layer"/>
  <g id="_1752776446688">
   <path class="fil0" d="M0 6784c0,398 13,722 60,1109 75,622 299,1406 577,1970 239,486 472,877 796,1311 32,43 58,74 92,116l194 235c36,46 66,66 104,116 111,144 487,484 651,622 308,259 637,506 992,699 98,53 176,100 278,151 99,50 189,96 285,143 774,381 1888,637 2755,637 972,0 1558,-88 2470,-389 110,-36 211,-79 310,-119 480,-192 952,-443 1371,-747 167,-121 324,-235 477,-368 25,-21 33,-24 58,-47 160,-149 470,-418 595,-574 118,-148 248,-277 385,-460 334,-445 559,-825 806,-1324 191,-388 339,-833 437,-1253 27,-116 54,-217 77,-340 75,-402 115,-796 122,-1185l0 -257c-14,-735 -147,-1456 -389,-2191 -156,-473 -421,-1006 -694,-1424 -31,-47 -52,-78 -82,-126 -79,-128 -176,-250 -267,-370l-389 -468c-134,-161 -475,-471 -653,-621 -80,-67 -145,-123 -230,-187 -84,-63 -160,-126 -246,-183 -258,-173 -517,-339 -794,-480 -54,-27 -81,-50 -137,-72 -145,-58 -283,-134 -440,-197 -776,-310 -1579,-511 -2464,-511 -687,0 -1164,39 -1817,197 -553,134 -1180,360 -1678,649 -45,26 -93,55 -139,81 -178,96 -348,217 -516,329l-355 270c-43,37 -79,62 -121,99l-167 145c-27,27 -35,29 -63,52l-621 653c-66,79 -124,147 -187,230 -63,84 -125,159 -183,246 -58,86 -108,163 -167,250 -30,44 -53,82 -81,128 -30,49 -55,88 -82,138l-151 277c-154,279 -287,585 -387,886 -33,101 -74,209 -103,314l-167 678c-79,390 -123,751 -123,1162z"/>
   <path class="fil1" d="M3726 9727c61,292 223,484 404,603 257,168 490,167 837,167l4052 0c343,0 585,-3 830,-174 174,-121 353,-328 397,-625 25,-160 21,-521 10,-690 -35,-538 -520,-929 -969,-1183 -605,-342 -1497,-556 -2317,-561 -871,-6 -1671,213 -2317,561 -204,110 -358,230 -515,376 -223,207 -412,502 -426,832 -9,194 -13,512 15,695z"/>
   <path class="fil1" d="M5451 5032c82,750 686,1360 1494,1360 804,0 1422,-613 1494,-1363 34,-595 -215,-1063 -605,-1346 -80,-58 -149,-98 -246,-147 -888,-450 -2208,161 -2137,1496z"/>
   <path class="fil2" d="M3726 9727c-49,66 4,412 33,500 129,393 528,663 1000,667 744,7 1490,0 2234,0 743,0 1492,10 2234,0 446,-6 858,-261 990,-676 29,-92 62,-373 42,-481 0,0 21,13 -14,-38 -44,297 -223,504 -397,625 -245,171 -487,174 -830,174l-4052 0c-347,0 -580,1 -837,-167 -181,-118 -343,-311 -404,-603z"/>
   <path class="fil2" d="M8440 5030c-73,750 -691,1363 -1494,1363 -809,0 -1412,-610 -1494,-1360 -41,145 22,572 68,713 59,178 180,399 299,523 159,166 239,243 462,360 416,217 908,212 1324,4 454,-227 792,-689 835,-1214 6,-69 16,-340 1,-388z"/>
  </g>
 </g>
</svg>
